<svg width="5299" height="16177" viewBox="0 0 5299 16177" fill="none" xmlns="http://www.w3.org/2000/svg">
<path d="M3167.17 7942.93C3211.49 8278.27 3156.34 8619.78 3008.64 8924.63C2879.64 9183.73 2694.18 9413.42 2631.33 9701.48C2531.72 10156 2713.42 10609.9 2838.4 11038.8C2916.42 11272.6 2959.33 11517 2965.72 11763.9C2961.17 12063.4 2841.82 12334.9 2695.96 12591.3C2419.51 13078.6 2115.55 13521.1 2235.48 14105.9C2301.96 14427.7 2438.69 14728.8 2493.34 15053.5C2549.82 15410.6 2535.47 15775.8 2451.12 16127.9C2443.71 16159.9 2499.01 16190.8 2508.38 16155C2588.48 15862.7 2616.51 15558.7 2591.16 15257C2565.23 14951.9 2470.69 14670.1 2381.62 14380.1C2292.56 14090 2233.98 13783.7 2324.12 13477.7C2408.39 13192 2576.2 12940.1 2728.45 12687.2C2864.98 12453.8 2991.84 12208.1 3027.8 11936.9C3051.62 11708 3032.59 11476.8 2971.7 11255.3C2856.09 10790.7 2626.59 10322.6 2682.36 9833.42C2723.48 9474.95 2965.65 9206.84 3102.4 8885.75C3232.1 8589.31 3266.43 8259.9 3200.59 7943.75C3195.5 7920.18 3164.45 7914.42 3167.74 7943.12L3167.17 7942.93Z" fill="#37474F"/>
<path d="M2227.22 6118.6C2086.95 6852.35 2487.23 7887.12 3203.61 8201.73C3996.36 8129.87 4732.24 7344.2 4870.85 6607.94C5009.45 5871.69 4668.12 5100.42 3817.34 4942.42C2966.56 4784.42 2365.22 5384.06 2227.22 6118.6Z" fill="#F28F8F"/>
<path opacity="0.05" d="M4739.98 6983C4739.98 6983 4413.77 7652.19 3533.95 7546.16C2688.98 7445.94 2183.16 6396.6 2323.82 5790.48C2280.52 5896.28 2248.15 6006.24 2227.22 6118.6C2086.95 6852.35 2487.23 7887.12 3203.61 8201.73C3860.33 8142.4 4477.88 7592.66 4749.01 6988.08L4739.98 6983Z" fill="black"/>
<path d="M1883.02 3025.48C1747.53 3215.97 1655.9 3434.5 1614.77 3665.16C1575.17 3894.3 1614.77 4122.84 1626.17 4352.6C1644.18 4654.9 1579.37 4908.23 1380.13 5138.59C1222.31 5319.97 1031.48 5471.12 888.654 5667.02C601.807 6060.62 536.996 6500.77 595.806 6976.6C662.416 7515.3 786.636 8021.97 529.194 8533.47C391.171 8807.96 208.742 9058.27 112.127 9353.31C25.796 9640.53 -11.1429 9940.51 2.90819 10240.3C2.90819 10273.5 65.9184 10283.8 66.5185 10246.9C61.6088 9960.95 98.2011 9675.79 175.136 9400.47C253.749 9147.75 395.372 8925.86 523.793 8696.71C653.97 8481.11 735.888 8239.49 763.832 7988.71C775.589 7763.2 760.479 7537.07 718.825 7315.18C679.218 7057.01 631.211 6795.21 643.813 6533.42C659.487 6273.54 741.104 6022.06 880.852 5803.05C1126.89 5409.45 1604.57 5167.61 1686.78 4678.48C1726.39 4441.47 1675.98 4200.84 1664.58 3963.83C1648.98 3634.93 1756.4 3335.04 1914.22 3052.08C1924.42 3034.55 1895.02 3006.13 1881.82 3024.88L1883.02 3025.48Z" fill="#37474F"/>
<path d="M1961.63 3566C1982.03 3470.47 1841.61 3165.14 1806.2 3156.68C1770.79 3148.22 1536.16 3365.27 1513.95 3466.84C1511.46 3487.09 1514.3 3507.65 1522.21 3526.44C1530.11 3545.22 1542.78 3561.58 1558.96 3573.86C1602.58 3609.62 1653.9 3634.59 1708.82 3646.77C1763.74 3658.95 1820.72 3658 1875.21 3643.99C1895.13 3639.74 1913.59 3630.3 1928.75 3616.62C1943.91 3602.93 1955.25 3585.48 1961.63 3566V3566Z" fill="#FBE67F"/>
<path opacity="0.1" d="M1961.63 3566C1982.03 3470.47 1841.61 3165.14 1806.2 3156.68C1770.79 3148.22 1536.16 3365.27 1513.95 3466.84C1511.46 3487.09 1514.3 3507.65 1522.21 3526.44C1530.11 3545.22 1542.78 3561.58 1558.96 3573.86C1602.58 3609.62 1653.9 3634.59 1708.82 3646.77C1763.74 3658.95 1820.72 3658 1875.21 3643.99C1895.13 3639.74 1913.59 3630.3 1928.75 3616.62C1943.91 3602.93 1955.25 3585.48 1961.63 3566Z" fill="#FBE67F"/>
<path d="M3491.88 1737.05C3332.85 2466.81 2562.93 3263.08 1781.6 3272.76C1079.48 2896.08 708.623 1885.78 868.249 1156.63C1027.87 427.467 1642.98 -151.747 2488.51 35.6813C3334.05 223.11 3651.5 1003.66 3491.88 1737.05Z" fill="#FBE67F"/>
<path opacity="0.05" d="M841.242 1546.6C841.242 1546.6 883.849 2290.27 1731.79 2536.95C2549.12 2774.56 3424.06 2006.71 3532.08 1393.64C3530.16 1508.15 3516.89 1622.18 3492.48 1734.03C3333.45 2463.79 2563.52 3260.06 1782.2 3269.74C1200.1 2957.76 846.642 2210.46 832.84 1547.81L841.242 1546.6Z" fill="black"/>
</svg>
