<svg width="17241" height="18874" viewBox="0 0 17241 18874" fill="none" xmlns="http://www.w3.org/2000/svg">
<path d="M9687.18 3129.85C9833.51 3312.14 9937.7 3524.97 9992.17 3752.84C10045 3979.3 10018.8 4209.76 10020.8 4439.78C10020.4 4742.62 10099.8 4991.76 10312.1 5210.14C10480.2 5382.04 10679.5 5521.84 10833.5 5709.1C11142.7 6085.35 11233 6521 11201.9 6999.44C11166.8 7541.11 11072.2 8054.13 11359 8549.8C11512.7 8815.8 11709.4 9055.08 11823 9344.01C11925.9 9625.72 11980.2 9923.05 11983.6 10223.1C11985.5 10256.3 11923.2 10270.2 11920.5 10233.5C11908.8 9947.68 11855.6 9665.13 11762.8 9394.75C11669.7 9147.03 11515.4 8933.74 11373.9 8712.45C11231.4 8504.79 11135.5 8268.34 11093.1 8019.61C11068.2 7795.16 11070.1 7568.54 11098.8 7344.6C11123.4 7084.56 11156.1 6820.42 11128.3 6559.8C11097.5 6301.27 11001.4 6054.96 10849.1 5844.45C10580.6 5465.82 10089.7 5252.16 9979.19 4768.64C9925.87 4534.34 9962.21 4291.18 9959.81 4053.91C9956.26 3724.65 9831.59 3431.52 9657.58 3158.22C9646.37 3141.31 9674.08 3111.23 9688.35 3129.17L9687.18 3129.85Z" fill="#37474F"/>
<path d="M9640.13 3674.02C9614.21 3579.84 9736.64 3266.87 9771.5 3256.36C9806.35 3245.85 10053.2 3448.89 10081.3 3549.01C10085 3569.08 10083.3 3589.76 10076.5 3608.98C10069.7 3628.19 10058 3645.26 10042.6 3658.46C10001.1 3696.69 9951.33 3724.6 9897.21 3739.96C9843.09 3755.31 9786.15 3757.67 9730.94 3746.86C9710.81 3743.77 9691.83 3735.42 9675.9 3722.64C9659.97 3709.86 9647.63 3693.1 9640.13 3674.02V3674.02Z" fill="#5CA6D1"/>
<path opacity="0.1" d="M9640.13 3674.02C9614.21 3579.84 9736.64 3266.87 9771.5 3256.36C9806.35 3245.85 10053.2 3448.89 10081.3 3549.01C10085 3569.08 10083.3 3589.76 10076.5 3608.98C10069.7 3628.19 10058 3645.26 10042.6 3658.46C10001.1 3696.69 9951.33 3724.6 9897.21 3739.96C9843.09 3755.31 9786.15 3757.67 9730.94 3746.86C9710.81 3743.77 9691.83 3735.42 9675.9 3722.64C9659.97 3709.86 9647.63 3693.1 9640.13 3674.02Z" fill="#5CA6D1"/>
<path d="M8006.13 1937.14C8207.32 2656.42 9022.24 3406.58 9802.81 3370.81C10481.8 2953.95 10793.3 1923.8 10591.6 1205.15C10389.8 486.509 9742.08 -55.9619 8908.87 180.312C8075.66 416.586 7804.13 1214.27 8006.13 1937.14Z" fill="#5CA6D1"/>
<path opacity="0.05" d="M10641.2 1592.9C10641.2 1592.9 10641.9 2337.79 9809.75 2633.35C9007.62 2918.08 8089.51 2202.4 7946.03 1596.65C7954.6 1710.85 7974.48 1823.92 8005.36 1934.16C8206.54 2653.44 9021.47 3403.6 9802.03 3367.83C10365 3022.53 10674.4 2255.95 10649.7 1593.62L10641.2 1592.9Z" fill="black"/>
<path d="M2732.93 11403C2663.64 11626.2 2644.76 11862.4 2677.65 12094.4C2711.52 12324.5 2820.45 12529.2 2902.96 12744C3014.38 13025.6 3031.85 13286.5 2914.43 13567.5C2821.07 13789.1 2686.93 13992.2 2612.35 14222.9C2462.63 14686.3 2538.38 15124.7 2742.71 15558.5C2974.07 16049.5 3250.16 16492.1 3165.16 17058.4C3119.66 17362.3 3024.44 17657 3024.7 17967.4C3032.29 18267.3 3090.78 18563.8 3197.66 18844.2C3208.03 18875.8 3271.11 18865.9 3260.17 18830.7C3166.28 18560.5 3112.08 18278.2 3099.28 17992.6C3095.11 17728 3160.44 17473 3210.96 17215.2C3267.37 16969.7 3269.82 16714.6 3218.12 16467.6C3158.93 16249.7 3074.03 16039.6 2965.22 15841.8C2847.04 15608.8 2719.75 15375.1 2650.05 15122.4C2583.86 14870.6 2582.94 14606.2 2647.38 14354.6C2758.34 13903.8 3136.72 13525 3062.22 13034.7C3025.91 12797.1 2902.94 12584.2 2818.16 12362.6C2700.72 12055 2709.21 11736.6 2770.88 11418.5C2775.1 11398.7 2738.3 11380.8 2731.6 11402.8L2732.93 11403Z" fill="#37474F"/>
<path d="M2976.26 11892C2965.84 11794.9 2737.16 11548.6 2700.88 11551.6C2664.6 11554.6 2509.4 11834 2519.99 11937.4C2523.94 11957.5 2533.06 11976.1 2546.43 11991.5C2559.8 12006.9 2576.94 12018.5 2596.14 12025.1C2648.74 12045.4 2705.29 12053.2 2761.27 12047.6C2817.25 12042 2871.09 12023.3 2918.49 11993C2936.08 11982.8 2950.68 11968.1 2960.81 11950.3C2970.95 11932.6 2976.27 11912.5 2976.26 11892V11892Z" fill="#EBA189"/>
<path opacity="0.1" d="M2976.26 11892C2965.84 11794.9 2737.16 11548.6 2700.88 11551.6C2664.6 11554.6 2509.4 11834 2519.99 11937.4C2523.94 11957.5 2533.06 11976.1 2546.43 11991.5C2559.8 12006.9 2576.94 12018.5 2596.14 12025.1C2648.74 12045.4 2705.29 12053.2 2761.27 12047.6C2817.24 12042 2871.09 12023.3 2918.49 11993C2936.08 11982.8 2950.68 11968.1 2960.81 11950.3C2970.95 11932.6 2976.27 11912.5 2976.26 11892Z" fill="#EBA189"/>
<path d="M3859.5 9676.89C3936.09 10419.8 3453.03 11416.6 2713.72 11669.5C1929.14 11530.7 1261.58 10686.6 1185.74 9944C1109.9 9201.44 1513.59 8459.23 2375.4 8373.49C3237.21 8287.76 3782.34 8930.31 3859.5 9676.89Z" fill="#EBA189"/>
<path opacity="0.05" d="M1281.75 10322.9C1281.75 10322.9 1554.26 11016.2 2436.83 10986C3287.5 10956.7 3879.2 9954.25 3790.55 9338.08C3824.45 9447.47 3847.42 9559.95 3859.12 9673.84C3935.72 10416.8 3452.66 11413.5 2713.35 11666.5C2062.98 11551.7 1494.01 10952 1274.15 10326.7L1281.75 10322.9Z" fill="black"/>
<path d="M13153.9 6558.77C13093.9 6784.69 13084.8 7021.48 13127.2 7251.9C13170.6 7480.37 13287.8 7680.48 13379.1 7891.62C13502.1 8168.38 13530.3 8428.35 13424.6 8713.97C13340.4 8939.2 13214.8 9147.71 13149.8 9381.26C13019.3 9850.49 13113.1 10285.4 13335.1 10710.3C13586.5 11191.4 13880.7 11622.2 13819.1 12191.6C13786.2 12497 13703.2 12795.4 13716.2 13105.6C13736.2 13404.9 13806.9 13698.7 13925.2 13974.5C13936.9 14005.7 13999.5 13993.2 13987.1 13958.4C13882.2 13692.4 13816.4 13412.5 13791.8 13127.7C13776.7 12863.4 13831.5 12606 13871.3 12346.3C13917.6 12098.7 13909.5 11843.8 13847.6 11599.1C13779.5 11383.8 13686 11177.4 13569.1 10984.2C13441.4 10756.4 13304.6 10528.1 13224.6 10278.5C13148 10029.6 13136.2 9765.5 13190.2 9511.38C13282.5 9056.47 13644.9 8662.38 13550.3 8175.51C13504.2 7939.68 13372.5 7732.04 13278.7 7514.1C13148.7 7211.59 13144 6893.08 13192.5 6572.73C13195.9 6552.73 13158.4 6536.44 13152.6 6558.63L13153.9 6558.77Z" fill="#37474F"/>
<path d="M13417.2 7037.33C13402.8 6940.72 13164.2 6704.09 13128 6708.58C13091.9 6713.08 12948.4 6998.67 12963.2 7101.58C12968 7121.42 12977.9 7139.66 12991.9 7154.49C13005.9 7169.31 13023.5 7180.17 13042.9 7186C13096.3 7204.18 13153.1 7209.55 13208.8 7201.68C13264.5 7193.81 13317.6 7172.92 13363.7 7140.69C13380.8 7129.72 13394.8 7114.4 13404.2 7096.27C13413.6 7078.13 13418.1 7057.81 13417.2 7037.33V7037.33Z" fill="#79CA95"/>
<path opacity="0.1" d="M13417.2 7037.33C13402.8 6940.72 13164.2 6704.09 13128 6708.58C13091.9 6713.08 12948.4 6998.67 12963.2 7101.58C12968 7121.42 12977.9 7139.66 12991.9 7154.49C13005.9 7169.31 13023.5 7180.17 13042.9 7186C13096.3 7204.18 13153.1 7209.55 13208.8 7201.68C13264.5 7193.81 13317.6 7172.92 13363.7 7140.69C13380.8 7129.72 13394.8 7114.4 13404.2 7096.26C13413.6 7078.13 13418.1 7057.81 13417.2 7037.33Z" fill="#79CA95"/>
<path d="M14208.3 4787.7C14315.5 5526.85 13874 6542.67 13145.7 6825.91C12356.1 6719.58 11654.3 5903.67 11547.9 5164.87C11441.5 4426.07 11814.2 3667.84 12671.7 3546.63C13529.3 3425.42 14100.5 4044.93 14208.3 4787.7Z" fill="#79CA95"/>
<path opacity="0.05" d="M11659.4 5539.52C11659.4 5539.52 11960.3 6220.95 12840.9 6154.38C13689.6 6090.06 14239.5 5064 14125.5 4452.01C14163.9 4559.91 14191.5 4671.35 14207.8 4784.66C14315 5523.82 13873.5 6539.63 13145.2 6822.87C12490.7 6735.01 11897.5 6159.27 11652 5543.6L11659.4 5539.52Z" fill="black"/>
</svg>
