<svg width="25266" height="12719" viewBox="0 0 25266 12719" fill="none" xmlns="http://www.w3.org/2000/svg">
<path d="M15815.7 606.425C15550.3 580.285 15190.6 1023.53 15450.9 1236.62C15595.2 1354.82 15909.5 1303.68 15905.5 1082.62C15904.9 1076.49 15902.2 1070.74 15898 1066.23C15893.8 1061.72 15888.3 1058.7 15882.2 1057.62C15673.7 1009.89 15466.8 1099.67 15502 1341.75C15520.9 1446.11 15574.7 1540.97 15654.5 1610.84C15734.3 1680.72 15835.4 1721.47 15941.3 1726.46C15953.8 1726.46 15949.3 1704.87 15941.3 1702.59C15759.5 1664.52 15587.8 1551.44 15552 1357.09C15544 1322.7 15543.3 1286.98 15550 1252.3C15556.8 1217.62 15570.8 1184.77 15591.3 1155.93C15615.6 1126.72 15647.7 1105.03 15683.9 1093.42C15715.1 1083.76 15827.1 1066.14 15854.4 1093.42C15903.2 1144 15770.3 1229.8 15730.5 1243.44C15691.2 1257.54 15649.3 1262.81 15607.8 1258.88C15566.2 1254.95 15526 1241.92 15490.1 1220.71C15379.9 1143.43 15407.1 997.954 15460.6 895.099C15532.7 755.876 15658.9 642.793 15821.4 637.111C15836.2 637.111 15828.2 609.266 15816.9 608.13L15815.7 606.425Z" fill="#F2C16E"/>
<path d="M15903.8 9337.12C15987.3 9149.03 15978.2 8954.12 16221.5 8892.18C16328.3 8864.9 16581.2 8839.9 16661.3 8934.79C16675.9 8957.71 16681.8 8985.1 16677.9 9012C16674.1 9038.89 16660.7 9063.52 16640.3 9081.4C16577.2 9138.23 16530 9070.04 16513.5 9009.8C16500.9 8954.19 16505.7 8896.01 16527.5 8843.28C16549.3 8790.56 16586.9 8745.89 16635.1 8715.45C16737.2 8648.24 16860.7 8621.69 16981.4 8641.05C17102 8660.4 17211 8724.25 17286.9 8820.01C17296 8831.37 17305.7 8820.01 17301.7 8807.51C17115.3 8378.47 16222 8676.81 16506.2 9088.22C16593.1 9212.67 16746.5 9103 16717.5 8971.16C16685.7 8825.12 16436.8 8832.51 16326.6 8839.9C16214.9 8839.96 16107.1 8881.47 16024.3 8956.39C15927.1 9051.86 15914 9203.01 15893.6 9331.44C15893.6 9337.12 15898.7 9345.64 15902.7 9337.12H15903.8Z" fill="#F2C16E"/>
<path d="M22275.7 111.475C22450.1 60.3324 22689.9 74.5387 22836 192.168C22949.6 283.089 23013.3 480.274 22846.8 547.897C22781.4 574.036 22566 574.036 22540.5 485.388C22522.3 423.448 22588.8 386.512 22642.2 378.556C22798.5 354.121 22945.1 518.915 22941.1 666.094C22936 887.146 22678.6 960.451 22496.7 962.156C22484.8 962.156 22487.6 984.886 22496.7 985.454C22806.4 1015.57 23151.9 728.602 22876.3 441.064C22802.4 363.781 22686.5 308.66 22579.7 351.28C22519.4 375.715 22471.7 430.267 22501.8 495.617C22550.1 600.744 22744.5 618.929 22838.8 592.221C22863.8 585.567 22887.2 573.855 22907.5 557.809C22927.8 541.762 22944.6 521.721 22956.8 498.926C22969.1 476.131 22976.5 451.065 22978.7 425.279C22980.9 399.493 22977.8 373.534 22969.5 349.007C22893.4 69.4245 22501.8 8.05274 22270 94.996C22263.2 94.996 22266 113.749 22274 111.475H22275.7Z" fill="#F2C16E"/>
<path d="M24561.8 11842C24736.2 11790.9 24976 11805.1 25122.1 11922.7C25235.7 12013.6 25299.4 12210.8 25132.9 12278.4C25067.5 12304.6 24852.1 12304.6 24826.6 12215.3C24808.4 12154 24874.9 12117 24927.7 12108.5C25084.6 12084.6 25230.6 12249.4 25227.2 12396.6C25222.1 12617.7 24964.7 12691 24782.8 12692.7C24770.9 12692.7 24773.7 12715.4 24782.8 12716C25092.5 12746.1 25438 12459.1 25162.4 12171.6C25088.5 12094.3 24972.6 12039.2 24865.8 12081.8C24805.5 12105.7 24757.8 12160.8 24787.9 12226.1C24836.2 12331.3 25030.6 12349.4 25124.9 12322.2C25149.9 12315.7 25173.4 12304.1 25193.7 12288.1C25214 12272.1 25230.9 12252.1 25243.1 12229.3C25255.4 12206.6 25262.8 12181.5 25265 12155.7C25267.1 12130 25263.9 12104 25255.6 12079.5C25179.5 11799.4 24787.9 11738.6 24556.1 11825.5C24549.3 11825.5 24551.5 11844.3 24560.1 11842H24561.8Z" fill="#F2C16E"/>
<path d="M23283.2 3345.42C23075.2 3407.36 22882 3773.32 23075.2 3939.82C23239.4 4081.31 23571.3 4049.49 23516.2 3779.57C23515.6 3776.49 23514.3 3773.61 23512.3 3771.21C23510.3 3768.82 23507.7 3766.99 23504.8 3765.93C23286.6 3713.65 23214.4 3968.23 23260.4 4136.43C23331.5 4397.83 23595.2 4394.42 23785.5 4258.04C23791.8 4253.49 23788.9 4235.31 23779.8 4239.85C23624.1 4317.71 23405.9 4387.03 23311 4188.14C23260.5 4081.88 23258.7 3904.02 23356.5 3823.89C23381.9 3800.17 23415.5 3787.14 23450.2 3787.52C23523 3796.05 23510.5 3874.47 23469.6 3924.47C23404.2 4004.03 23273 3995.5 23185.4 3964.82C22886 3858.55 23091.7 3470.44 23287.2 3361.33C23292.8 3357.92 23291.7 3343.15 23283.2 3345.42Z" fill="#F2C16E"/>
<path d="M18658.1 2431.1C18412.7 2399.84 17884.7 2606.69 18022.3 2942.53C18095.6 3121.53 18422.9 3236.32 18530.3 3031.18C18532.6 3025.59 18532.6 3019.32 18530.4 3013.7C18528.2 3008.08 18523.9 3003.55 18518.3 3001.06C18006.9 2711.25 17468.2 3548.29 18010.9 3853.44C18027.9 3863.1 18027.4 3834.12 18017.7 3826.73C17970.9 3794.68 17930.9 3753.6 17900.2 3705.92C17869.4 3658.23 17848.5 3604.89 17838.6 3549.01C17828.7 3493.13 17830 3435.84 17842.5 3380.49C17855.1 3325.14 17878.5 3272.84 17911.5 3226.66C17966.7 3138.39 18045.4 3067.18 18138.8 3020.95C18208.6 2987.99 18384.2 2941.39 18449.6 3009.58C18479.1 3041.4 18478.6 3001.63 18463.2 3038.56C18448.6 3060.5 18426.3 3076.13 18400.7 3082.32C18344.9 3100.04 18284.7 3098.03 18230.2 3076.64C18116.6 3036.86 18027.4 2932.3 18059.8 2806.71C18119.4 2554.98 18439.9 2465.76 18664.4 2461.78C18679.7 2461.78 18670.1 2432.8 18658.1 2431.1Z" fill="#F2C16E"/>
<path d="M19775.3 165.457C19775.3 165.457 19760.6 440.493 19964.6 593.354L20178.2 528.005C20178.2 528.005 20035.6 459.814 19964.6 165.457H19775.3Z" fill="#5CA6D1"/>
<path d="M16176 6823.72C16176 6823.72 16160.7 7098.76 16364.7 7251.62L16578.9 7186.27C16578.9 7186.27 16435.7 7118.08 16364.7 6823.72H16176Z" fill="#5CA6D1"/>
<path d="M17922.8 9922.99C17922.8 9922.99 17907.5 10197.5 18112 10350.3L18325.7 10285.5C18325.7 10285.5 18183.1 10216.8 18112 9922.99H17922.8Z" fill="#79CA95"/>
<path d="M24620.3 1543.48C24620.3 1543.48 24495.3 1788.97 24242.4 1819.09L24089.5 1655.43C24089.5 1655.43 24247.5 1667.93 24456.6 1449.15L24620.3 1543.48Z" fill="#5CA6D1"/>
<path d="M23154.8 10320.8C23154.8 10320.8 23030.3 10566.3 22776.9 10595.8L22624 10432.7C22624 10432.7 22782.5 10444.7 22991.1 10225.9L23154.8 10320.8Z" fill="#5CA6D1"/>
<path d="M19657.1 5164.98C19657.1 5164.98 19532.7 5410.47 19279.2 5440.01L19126.4 5276.93C19126.4 5276.93 19284.9 5288.86 19493.5 5070.08L19657.1 5164.98Z" fill="#F2C16E"/>
<path d="M17383.5 2135.6C17383.5 2135.6 17259.1 2381.09 17006.2 2411.21L16853.4 2247.55C16853.4 2247.55 17011.3 2260.05 17220.5 2041.27L17383.5 2135.6Z" fill="#5CA6D1"/>
<path d="M22105.2 2504.97C22105.2 2504.97 21831.9 2539.07 21665.4 2345.29L21715.9 2127.65C21715.9 2127.65 21793.8 2265.73 22092.1 2316.31L22105.2 2504.97Z" fill="#F2C16E"/>
<path d="M18142.2 1163.31C18142.2 1163.31 17869.4 1197.41 17702.9 1004.2L17752.9 786.56C17752.9 786.56 17831.3 924.078 18129.7 975.221L18142.2 1163.31Z" fill="#F2C16E"/>
<path d="M13546.7 566.648C13546.7 566.648 13273.9 600.744 13107.4 407.536L13157.4 189.894C13157.4 189.894 13235.8 327.412 13533.6 378.555L13546.7 566.648Z" fill="#F2C16E"/>
<path d="M16816.4 4233.04C16816.4 4233.04 16543.7 4266.57 16377.2 4073.36L16427.2 3855.72C16427.2 3855.72 16505.6 3993.81 16803.9 4044.38L16816.4 4233.04Z" fill="#F2C16E"/>
<path d="M24993.1 6267.97C24993.1 6267.97 24719.7 6301.49 24553.8 6108.29L24603.8 5890.64C24603.8 5890.64 24682.2 6028.73 24980 6079.3L24993.1 6267.97Z" fill="#F2C16E"/>
<path d="M20233.9 3513.62C20233.9 3513.62 20109.5 3759.11 19856 3789.23L19703.2 3625.57C19703.2 3625.57 19890.1 3654.55 20100.9 3435.77L20233.9 3513.62Z" fill="#5CA6D1"/>
<path d="M20509 3876.17C20509 3876.17 20460.1 4147.23 20224.8 4248.38L20031.6 4134.73C20168.3 4073.05 20281.9 3969.59 20356.1 3839.24L20509 3876.17Z" fill="#79CA95"/>
<path d="M10904.3 393.897C11170.2 367.757 11529.4 810.429 11269.1 1023.53C11125.3 1142.29 10810.5 1090.58 10814.5 869.528C10815.3 863.499 10817.9 857.872 10822.1 853.474C10826.3 849.076 10831.8 846.139 10837.8 845.093C11046.9 797.359 11253.2 886.575 11218 1129.22C11199.1 1233.47 11145.5 1328.25 11065.8 1398.03C10986.1 1467.82 10885.1 1508.48 10779.3 1513.36C10766.2 1513.36 10770.7 1491.77 10779.3 1490.06C10961.1 1451.42 11132.7 1338.34 11167.9 1144C11176.2 1109.7 11176.9 1074.04 11170.2 1039.43C11163.4 1004.83 11149.3 972.074 11128.7 943.401C11104.2 913.182 11071.1 891.015 11033.8 879.756C11003.2 870.096 10890.6 852.48 10866.2 879.756C10816.8 930.9 10950.3 1016.14 10990.1 1029.78C11029.2 1044.06 11071.1 1049.43 11112.6 1045.5C11154 1041.57 11194.1 1028.43 11229.9 1007.05C11340.1 930.331 11312.9 784.857 11259.4 681.435C11187.8 542.78 11061.1 429.129 10898.6 424.015C10884.4 424.015 10891.8 396.17 10903.1 395.033L10904.3 393.897Z" fill="#F2C16E"/>
<path d="M10478.1 9708.76C10394.6 9520.67 10403.1 9325.75 10160.4 9263.25C10053.6 9235.97 9800.72 9210.97 9720.03 9306.43C9705.59 9329.3 9699.77 9356.56 9703.62 9383.33C9707.48 9410.1 9720.75 9434.61 9741.06 9452.47C9804.7 9509.3 9854.71 9441.11 9868.35 9381.44C9881.07 9325.74 9876.21 9267.47 9854.43 9214.65C9832.65 9161.83 9795.03 9117.06 9746.74 9086.52C9644.39 9018.54 9520.18 8991.61 9398.87 9011.09C9277.55 9030.57 9168.03 9095.04 9092.11 9191.65C9083.58 9202.44 9073.92 9191.65 9077.9 9179.14C9264.29 8750.11 10157.6 9048.44 9873.46 9459.86C9786.52 9584.31 9632.52 9474.07 9661.5 9342.8C9693.89 9196.76 9945.63 9204.15 10052.5 9210.97C10164.3 9211.21 10272.2 9252.69 10355.3 9327.46C10452.5 9423.49 10465.6 9574.65 10486 9702.51C10486 9708.76 10480.9 9716.71 10476.9 9708.76H10478.1Z" fill="#F2C16E"/>
<path d="M3494.78 111.475C3320.32 60.3324 3080.52 74.5387 2933.91 192.168C2820.26 283.089 2757.18 480.274 2923.68 547.897C2989.03 574.036 3204.4 574.036 3229.97 485.388C3248.16 423.448 3181.67 386.512 3128.25 378.556C2971.98 354.121 2825.37 518.915 2828.78 666.094C2834.47 887.146 3091.89 960.451 3273.73 962.156C3285.66 962.156 3282.82 984.886 3273.73 985.454C2964.03 1015.57 2618.53 728.602 2893.56 441.064C2968.01 363.781 3083.93 308.66 3190.76 351.28C3251 375.715 3298.73 430.267 3268.61 495.617C3220.31 600.744 3025.97 618.929 2931.64 592.221C2906.63 585.567 2883.25 573.855 2862.95 557.809C2842.65 541.762 2825.85 521.721 2813.6 498.926C2801.35 476.131 2793.91 451.065 2791.73 425.279C2789.55 399.493 2792.69 373.534 2800.94 349.007C2877.08 69.4245 3268.04 8.05274 3500.46 94.996C3507.28 94.996 3504.44 113.749 3496.48 111.475H3494.78Z" fill="#F2C16E"/>
<path d="M1465.53 11631.7C1291.08 11580.6 1051.28 11594.8 904.665 11712.4C791.014 11803.4 727.369 12000.5 894.437 12068.2C959.786 12094.3 1174.59 12094.3 1200.73 12005.7C1218.34 11943.7 1151.86 11906.8 1099.01 11898.8C942.17 11874.4 796.128 12039.2 799.538 12186.4C804.652 12407.4 1062.07 12480.7 1243.91 12482.4C1256.42 12482.4 1253.01 12505.2 1243.91 12506.3C934.215 12535.8 588.715 12248.9 863.751 11961.3C938.192 11884 1053.55 11828.9 1160.38 11871.5C1221.18 11896 1268.92 11950.5 1238.8 12015.9C1190.5 12121 995.586 12139.2 901.256 12112.5C876.253 12105.8 852.884 12094.1 832.6 12078.1C812.317 12062 795.552 12042 783.347 12019.2C771.143 11996.3 763.76 11971.3 761.657 11945.5C759.555 11919.7 762.777 11893.8 771.125 11869.3C846.703 11589.7 1238.23 11531.2 1470.65 11615.3C1477.47 11615.3 1474.63 11634 1466.67 11631.7H1465.53Z" fill="#F2C16E"/>
<path d="M1912.75 3450.55C2120.73 3512.49 2313.94 3878.44 2120.73 4044.94C1956.51 4187.01 1624.65 4154.62 1679.77 3884.69C1680.39 3881.66 1681.75 3878.83 1683.73 3876.45C1685.72 3874.07 1688.26 3872.21 1691.13 3871.06C1909.34 3819.34 1981.51 4073.92 1935.48 4242.13C1864.45 4502.96 1600.78 4500.12 1410.41 4363.17C1404.16 4358.62 1407 4341 1416.1 4345.55C1571.8 4423.4 1790.01 4492.16 1884.91 4293.27C1935.48 4187.01 1937.19 4009.14 1839.45 3929.59C1814.09 3905.71 1780.52 3892.48 1745.69 3892.65C1672.95 3901.17 1685.45 3980.16 1726.36 4029.6C1791.71 4109.16 1922.98 4100.63 2010.49 4069.95C2309.96 3964.25 2104.26 3575.56 1908.77 3466.46C1903.09 3463.05 1904.23 3448.27 1912.75 3450.55Z" fill="#F2C16E"/>
<path d="M2573.64 8104.57C2219.61 8132.98 2283.26 8805.23 2569.09 8896.15C2586.66 8902.44 2605.3 8905.17 2623.93 8904.19C2642.56 8903.22 2660.81 8898.55 2677.63 8890.47C2698.6 8875.05 2715.43 8854.68 2726.63 8831.19C2737.84 8807.69 2743.06 8781.79 2741.84 8755.79C2707.74 8642.14 2514.54 8786.48 2492.38 8831.37C2455.59 8890.53 2438.42 8959.79 2443.31 9029.28C2448.21 9098.77 2474.93 9164.94 2519.65 9218.35C2665.12 9375.76 2943.57 9380.87 3125.41 9289.95C3134.51 9284.84 3136.21 9302.45 3129.96 9307C2933.91 9432.59 2605.46 9414.4 2459.98 9215.51C2346.33 9056.4 2424.18 8634.18 2677.63 8671.69C2914.02 8706.35 2750.36 8975.71 2571.36 8939.91C2392.36 8904.11 2327.58 8666.57 2310.53 8519.4C2288.94 8334.14 2344.06 8084.11 2573.64 8088.09C2581.02 8088.09 2580.45 8104 2573.64 8104.57Z" fill="#F2C16E"/>
<path d="M7019.68 2431.1C7265.16 2399.84 7793.07 2606.69 7655.56 2942.53C7582.25 3121.53 7254.93 3236.32 7147.53 3031.18C7145.23 3025.59 7145.18 3019.32 7147.41 3013.7C7149.64 3008.08 7153.96 3003.55 7159.47 3001.06C7670.9 2711.25 8209.61 3548.29 7666.92 3853.44C7649.87 3863.1 7650.44 3834.12 7660.1 3826.73C7707.01 3794.68 7747.04 3753.57 7777.85 3705.84C7808.66 3658.11 7829.63 3604.7 7839.52 3548.75C7849.42 3492.81 7848.05 3435.45 7835.49 3380.04C7822.92 3324.63 7799.42 3272.29 7766.36 3226.09C7711.08 3137.82 7632.4 3066.61 7539.06 3020.38C7469.17 2987.42 7293.58 2940.82 7228.23 3009.01C7198.68 3040.84 7199.25 3001.06 7214.59 3037.99C7229.17 3059.93 7251.49 3075.56 7277.1 3081.75C7332.89 3099.47 7393.08 3097.46 7447.57 3076.07C7561.22 3036.29 7650.44 2931.73 7618.05 2806.15C7558.38 2554.41 7237.89 2465.19 7013.42 2461.21C6998.08 2461.21 7007.74 2432.23 7019.68 2430.53V2431.1Z" fill="#F2C16E"/>
<path d="M6023.52 665.526C6023.52 665.526 6038.86 940.562 5834.29 1093.42L5620.63 1027.51C5620.63 1027.51 5763.26 959.314 5834.29 664.957L6023.52 665.526Z" fill="#5CA6D1"/>
<path d="M10439.4 7472.1C10439.4 7472.1 10454.8 7747.14 10250.2 7900L10036.5 7835.22C10036.5 7835.22 10179.2 7766.46 10250.2 7472.1H10439.4Z" fill="#5CA6D1"/>
<path d="M9595.02 10759.5C9595.02 10759.5 9609.79 11034.5 9405.79 11187.4L9192.12 11122C9192.12 11122 9334.75 11053.8 9405.79 10759.5H9595.02Z" fill="#79CA95"/>
<path d="M1057.53 1543.48C1057.53 1543.48 1182.54 1788.97 1435.42 1819.09L1591.12 1655.43C1591.12 1655.43 1433.14 1667.93 1224.03 1449.15L1057.53 1543.48Z" fill="#5CA6D1"/>
<path d="M3701.06 10021.3C3701.06 10021.3 3825.5 10266.8 4078.95 10296.9L4231.81 10133.2C4231.81 10133.2 4073.26 10145.7 3864.71 9926.97L3701.06 10021.3Z" fill="#5CA6D1"/>
<path d="M6392.32 5483.2C6392.32 5483.2 6516.77 5728.69 6770.21 5758.81L6922.5 5595.15C6922.5 5595.15 6764.53 5607.65 6555.98 5388.87L6392.32 5483.2Z" fill="#F2C16E"/>
<path d="M8864.8 2270.28C8864.8 2270.28 8989.25 2515.77 9242.7 2545.89L9394.99 2382.23C9394.99 2382.23 9237.01 2394.73 9028.46 2175.95L8864.8 2270.28Z" fill="#5CA6D1"/>
<path d="M3572.06 2504.97C3572.06 2504.97 3845.39 2539.07 4011.89 2345.29L3961.32 2127.65C3961.32 2127.65 3883.47 2265.73 3585.13 2316.31L3572.06 2504.97Z" fill="#F2C16E"/>
<path d="M8239.72 376.849C8239.72 376.849 8513.05 410.944 8679.55 217.737L8629.55 0.0947266C8629.55 0.0947266 8551.13 137.613 8252.79 188.756L8239.72 376.849Z" fill="#F2C16E"/>
<path d="M8859.69 4003.46C8859.69 4003.46 9132.45 4036.99 9298.95 3843.78L9248.95 3626.14C9248.95 3626.14 9170.53 3764.23 8872.19 3814.8L8859.69 4003.46Z" fill="#F2C16E"/>
<path d="M0 9407.02C0 9407.02 273.332 9441.11 439.831 9247.91L389.824 9029.7C389.824 9029.7 311.405 9167.78 13.0699 9218.36L0 9407.02Z" fill="#F2C16E"/>
<path d="M5443.9 3513.62C5443.9 3513.62 5568.35 3759.11 5821.79 3789.23L5974.65 3625.57C5974.65 3625.57 5787.7 3654.55 5576.87 3435.77L5443.9 3513.62Z" fill="#5CA6D1"/>
<path d="M5171.14 3876.17C5171.14 3876.17 5220.01 4147.23 5455.26 4248.38L5648.47 4134.73C5511.77 4073.05 5398.16 3969.59 5324 3839.24L5171.14 3876.17Z" fill="#79CA95"/>
<path d="M14142.8 2461.78C14142.8 2461.78 14018.3 2707.27 13764.9 2737.39L13612 2574.3C13612 2574.3 13799 2602.71 14009.8 2383.93L14142.8 2461.78Z" fill="#5CA6D1"/>
<path d="M12917.6 2167.43C12917.6 2167.43 12868.7 2438.48 12633.5 2540.2L12440.3 2426.55C12577.1 2364.79 12690.7 2261.1 12764.8 2130.49L12917.6 2167.43Z" fill="#79CA95"/>
</svg>
